<svg width="26" height="28" viewBox="0 0 26 28" fill="none" xmlns="http://www.w3.org/2000/svg">
<g id="twemoji:light-bulb" clip-path="url(#clip0_2_131)">
<g id="Group 41">
<path id="Vector" d="M20.2322 9.554C20.2322 14.2914 16.8546 15.0271 16.8546 19.4423C16.8546 21.7216 14.7449 21.9136 13.1392 21.9136C11.7523 21.9136 8.69015 21.3405 8.69015 19.4408C8.69015 15.0279 5.37061 14.2921 5.37061 9.554C5.37061 5.11678 8.94077 1.51978 12.8575 1.51978C16.7755 1.51978 20.2322 5.11678 20.2322 9.554Z" fill="url(#paint0_linear_2_131)" stroke="white" stroke-width="0.5"/>
<path id="Vector_2" d="M15.6176 25.3279C15.6176 25.9371 14.1085 27.1672 12.8027 27.1672C11.4969 27.1672 9.98779 25.9371 9.98779 25.3279C9.98779 24.7187 11.4962 24.96 12.8027 24.96C14.1085 24.96 15.6176 24.7187 15.6176 25.3279Z" fill="url(#paint1_linear_2_131)" stroke="white" stroke-width="0.5"/>
<path id="Vector_3" d="M15.9796 8.9894C15.9169 8.92102 15.8425 8.86677 15.7605 8.82975C15.6786 8.79273 15.5907 8.77368 15.502 8.77368C15.4133 8.77368 15.3254 8.79273 15.2435 8.82975C15.1615 8.86677 15.0871 8.92102 15.0244 8.9894L12.7999 11.4122L10.5754 8.9894C10.5127 8.92109 10.4382 8.86691 10.3563 8.82994C10.2743 8.79297 10.1865 8.77394 10.0978 8.77394C10.0091 8.77394 9.92126 8.79297 9.83931 8.82994C9.75737 8.86691 9.68291 8.92109 9.62019 8.9894C9.55747 9.05771 9.50772 9.1388 9.47378 9.22805C9.43983 9.3173 9.42236 9.41296 9.42236 9.50956C9.42236 9.60617 9.43983 9.70182 9.47378 9.79107C9.50772 9.88032 9.55747 9.96142 9.62019 10.0297L12.1244 12.7571V20.5456C12.1244 20.7407 12.1955 20.9278 12.3222 21.0658C12.4489 21.2038 12.6207 21.2813 12.7999 21.2813C12.9791 21.2813 13.1509 21.2038 13.2776 21.0658C13.4043 20.9278 13.4754 20.7407 13.4754 20.5456V12.7571L15.9796 10.0297C16.0424 9.96146 16.0922 9.88038 16.1262 9.79112C16.1602 9.70187 16.1777 9.60619 16.1777 9.50956C16.1777 9.41294 16.1602 9.31726 16.1262 9.228C16.0922 9.13875 16.0424 9.05767 15.9796 8.9894Z" fill="white"/>
<path id="Vector_4" d="M17.4155 23.4163C17.4155 23.6815 17.2751 23.9358 17.025 24.1234C16.775 24.3109 16.4358 24.4163 16.0822 24.4163H10.7489C10.3952 24.4163 10.0561 24.3109 9.80605 24.1234C9.556 23.9358 9.41553 23.6815 9.41553 23.4163V20.4163H17.4155V23.4163Z" fill="#09010E"/>
<path id="Vector_5" d="M8.7448 24.9595C8.57564 24.9589 8.41287 24.8891 8.28867 24.764C8.16447 24.6389 8.08788 24.4676 8.07404 24.284C8.0602 24.1004 8.11013 23.9178 8.21394 23.7723C8.31775 23.6268 8.4679 23.5291 8.63469 23.4984L16.741 22.0269C16.8285 22.0105 16.9182 22.0132 17.0048 22.0348C17.0913 22.0563 17.1731 22.0964 17.2454 22.1527C17.3176 22.2089 17.3789 22.2802 17.4257 22.3624C17.4725 22.4447 17.5038 22.5362 17.5179 22.6317C17.5325 22.7269 17.5297 22.8244 17.5097 22.9185C17.4897 23.0126 17.4528 23.1015 17.4012 23.1801C17.3497 23.2587 17.2844 23.3254 17.2091 23.3765C17.1339 23.4276 17.0501 23.462 16.9626 23.4778L8.85626 24.9492C8.81947 24.9563 8.78216 24.9597 8.7448 24.9595ZM8.7448 22.0166C8.57564 22.0159 8.41287 21.9461 8.28867 21.8211C8.16447 21.696 8.08788 21.5247 8.07404 21.3411C8.0602 21.1574 8.11013 20.9748 8.21394 20.8294C8.31775 20.6839 8.4679 20.5861 8.63469 20.5554L16.741 19.084C16.8285 19.0677 16.9181 19.0704 17.0047 19.092C17.0912 19.1137 17.173 19.1538 17.2452 19.21C17.3174 19.2662 17.3787 19.3375 17.4255 19.4196C17.4723 19.5018 17.5037 19.5933 17.5179 19.6887C17.5325 19.784 17.5297 19.8815 17.5097 19.9756C17.4897 20.0697 17.4528 20.1586 17.4012 20.2371C17.3497 20.3157 17.2844 20.3825 17.2091 20.4335C17.1339 20.4846 17.0501 20.519 16.9626 20.5348L8.85626 22.0063C8.81947 22.0134 8.78216 22.0168 8.7448 22.0166Z" fill="url(#paint2_linear_2_131)" stroke="white" stroke-width="0.5"/>
</g>
</g>
<defs>
<linearGradient id="paint0_linear_2_131" x1="6.74819" y1="-0.329256" x2="26.6753" y2="4.30955" gradientUnits="userSpaceOnUse">
<stop stop-color="#F3D8A2"/>
<stop offset="1" stop-color="#A88038"/>
</linearGradient>
<linearGradient id="paint1_linear_2_131" x1="10.5096" y1="24.7084" x2="12.2687" y2="28.3725" gradientUnits="userSpaceOnUse">
<stop stop-color="#1A381C"/>
<stop offset="1" stop-color="#060B07"/>
</linearGradient>
<linearGradient id="paint2_linear_2_131" x1="8.94823" y1="18.5398" x2="14.5907" y2="26.1002" gradientUnits="userSpaceOnUse">
<stop stop-color="#1A381C"/>
<stop offset="1" stop-color="#060B07"/>
</linearGradient>
<clipPath id="clip0_2_131">
<rect width="25" height="27" fill="white" transform="translate(0.415527 0.41626)"/>
</clipPath>
</defs>
</svg>
