<svg width="23" height="21" viewBox="0 0 23 21" fill="none" xmlns="http://www.w3.org/2000/svg">
<g id="Group 40">
<g id="Exclude">
<path fill-rule="evenodd" clip-rule="evenodd" d="M3.51412 1.34888C1.80281 1.34888 0.415527 2.73616 0.415527 4.44747V16.8418C0.415527 18.5531 1.80281 19.9404 3.51412 19.9404H15.9085C17.6198 19.9404 19.0071 18.5531 19.0071 16.8418V4.44747C19.0071 3.9476 18.8887 3.47537 18.6785 3.05729C18.149 1.96043 17.1493 1.59501 16.9892 1.54254C16.6527 1.41731 16.2886 1.34888 15.9085 1.34888H3.51412ZM16.9892 1.54254C16.9749 1.53786 16.9673 1.53567 16.9673 1.53567C15.4063 2.99197 14.2552 4.27257 13.1287 5.52575C12.4139 6.32092 11.7091 7.10506 10.9157 7.91604L9.4425 6.16257C8.3355 4.89229 6.41906 4.76936 5.16201 5.88802C3.90496 7.00667 3.78332 8.94329 4.89032 10.2136L8.99074 14.908C9.56848 15.571 10.4012 15.9498 11.2754 15.9473C12.1496 15.9448 12.9802 15.5612 13.5542 14.895L19.0068 8.63045V4.60234C19.0068 3.97229 18.875 3.46441 18.6785 3.05729C18.3288 2.36198 17.7251 1.81643 16.9892 1.54254Z" fill="url(#paint0_linear_2_125)"/>
<path d="M16.9673 1.53567L17.0365 1.29545L16.9004 1.25621L16.7968 1.35287L16.9673 1.53567ZM13.1287 5.52575L13.3146 5.69287L13.1287 5.52575ZM10.9157 7.91604L10.7243 8.07686L10.9017 8.28793L11.0945 8.09087L10.9157 7.91604ZM9.4425 6.16257L9.63394 6.00173L9.63097 5.99832L9.4425 6.16257ZM5.16201 5.88802L4.99581 5.70126L5.16201 5.88802ZM4.89032 10.2136L4.70184 10.3778L4.70203 10.378L4.89032 10.2136ZM8.99074 14.908L9.17921 14.7437L9.17902 14.7435L8.99074 14.908ZM11.2754 15.9473L11.2761 16.1973L11.2754 15.9473ZM13.5542 14.895L13.3656 14.7308L13.3648 14.7318L13.5542 14.895ZM19.0068 8.63045L19.1953 8.79459L19.2568 8.72401V8.63045H19.0068ZM0.665527 4.44747C0.665527 2.87423 1.94089 1.59888 3.51412 1.59888V1.09888C1.66474 1.09888 0.165527 2.59809 0.165527 4.44747H0.665527ZM0.665527 16.8418V4.44747H0.165527V16.8418H0.665527ZM3.51412 19.6904C1.94088 19.6904 0.665527 18.4151 0.665527 16.8418H0.165527C0.165527 18.6912 1.66474 20.1904 3.51412 20.1904V19.6904ZM15.9085 19.6904H3.51412V20.1904H15.9085V19.6904ZM18.7571 16.8418C18.7571 18.4151 17.4817 19.6904 15.9085 19.6904V20.1904C17.7579 20.1904 19.2571 18.6912 19.2571 16.8418H18.7571ZM18.7571 4.44747V16.8418H19.2571V4.44747H18.7571ZM18.4551 3.16961C18.6482 3.55363 18.7571 3.98748 18.7571 4.44747H19.2571C19.2571 3.90772 19.1292 3.39711 18.9018 2.94498L18.4551 3.16961ZM16.9113 1.78011C17.049 1.82522 17.9683 2.16116 18.4533 3.16598L18.9036 2.94861C18.3297 1.75969 17.2496 1.3648 17.067 1.30497L16.9113 1.78011ZM15.9085 1.59888C16.2584 1.59888 16.593 1.66184 16.902 1.77684L17.0764 1.30824C16.7124 1.17279 16.3188 1.09888 15.9085 1.09888V1.59888ZM3.51412 1.59888H15.9085V1.09888H3.51412V1.59888ZM16.9673 1.53567C16.8981 1.77589 16.898 1.77589 16.898 1.77589C16.898 1.77589 16.898 1.77589 16.898 1.77588C16.898 1.77588 16.898 1.77588 16.898 1.77587C16.898 1.77587 16.898 1.77586 16.8979 1.77586C16.8979 1.77585 16.8979 1.77584 16.8978 1.77583C16.8978 1.7758 16.8977 1.77579 16.8976 1.77577C16.8975 1.77574 16.8974 1.77571 16.8974 1.7757C16.8973 1.77566 16.8973 1.77566 16.8974 1.7757C16.8976 1.77577 16.8983 1.77597 16.8994 1.77632C16.9017 1.77701 16.9057 1.77826 16.9113 1.78011L17.067 1.30497C17.0584 1.30214 17.0514 1.29996 17.0463 1.29838C17.0438 1.2976 17.0417 1.29696 17.04 1.29648C17.0392 1.29623 17.0385 1.29602 17.0379 1.29585C17.0376 1.29577 17.0374 1.29569 17.0371 1.29563C17.037 1.29559 17.0369 1.29556 17.0368 1.29553C17.0368 1.29552 17.0367 1.2955 17.0367 1.29549C17.0366 1.29548 17.0366 1.29548 17.0366 1.29547C17.0366 1.29547 17.0366 1.29546 17.0366 1.29546C17.0366 1.29546 17.0365 1.29546 17.0365 1.29545C17.0365 1.29545 17.0365 1.29545 16.9673 1.53567ZM13.3146 5.69287C14.4411 4.43972 15.5857 3.1665 17.1378 1.71847L16.7968 1.35287C15.2269 2.81744 14.0693 4.10542 12.9428 5.35862L13.3146 5.69287ZM11.0945 8.09087C11.892 7.27555 12.6003 6.4876 13.3146 5.69287L12.9428 5.35862C12.2276 6.15425 11.5261 6.93457 10.737 7.74122L11.0945 8.09087ZM9.25109 6.32339L10.7243 8.07686L11.1072 7.75522L9.63391 6.00175L9.25109 6.32339ZM5.32821 6.07477C6.48112 5.0488 8.2382 5.16115 9.25402 6.32682L9.63097 5.99832C8.43281 4.62342 6.357 4.48993 4.99581 5.70126L5.32821 6.07477ZM5.07879 10.0493C4.06164 8.88214 4.17377 7.10211 5.32821 6.07477L4.99581 5.70126C3.63615 6.91123 3.505 9.00444 4.70184 10.3778L5.07879 10.0493ZM9.17902 14.7435L5.07861 10.0491L4.70203 10.378L8.80245 15.0725L9.17902 14.7435ZM11.2747 15.6973C10.4735 15.6996 9.70964 15.3524 9.17921 14.7437L8.80226 15.0722C9.42732 15.7895 10.3289 16.2 11.2761 16.1973L11.2747 15.6973ZM13.3648 14.7318C12.8378 15.3435 12.0759 15.695 11.2747 15.6973L11.2761 16.1973C12.2233 16.1946 13.1226 15.7789 13.7436 15.0581L13.3648 14.7318ZM18.8182 8.46632L13.3656 14.7308L13.7428 15.0591L19.1953 8.79459L18.8182 8.46632ZM18.7568 4.60234V8.63045H19.2568V4.60234H18.7568ZM18.4533 3.16598C18.6329 3.53785 18.7568 4.0084 18.7568 4.60234H19.2568C19.2568 3.93618 19.1172 3.39097 18.9036 2.94861L18.4533 3.16598ZM16.902 1.77684C17.5783 2.02854 18.1336 2.53024 18.4551 3.16961L18.9018 2.94498C18.5241 2.19373 17.8719 1.60432 17.0764 1.30824L16.902 1.77684Z" fill="white"/>
</g>
<path id="Vector 11 (Stroke)" fill-rule="evenodd" clip-rule="evenodd" d="M21.7629 0.871992C22.5546 1.54435 22.6376 2.71545 21.9483 3.48771L12.3117 13.7797C11.952 14.1827 11.4315 14.4147 10.8836 14.4163C10.3358 14.4178 9.81394 14.1886 9.45188 13.7876L5.74542 9.53297C5.05169 8.76452 5.12792 7.59298 5.91568 6.91626C6.70344 6.23954 7.90443 6.3139 8.59815 7.08235L10.8701 9.74792L19.0814 1.05288C19.7707 0.280621 20.9712 0.199634 21.7629 0.871992Z" fill="url(#paint1_linear_2_125)" stroke="white" stroke-width="0.5"/>
</g>
<defs>
<linearGradient id="paint0_linear_2_125" x1="2.13886" y1="-0.336748" x2="25.9848" y2="7.28069" gradientUnits="userSpaceOnUse">
<stop stop-color="#F3D8A2"/>
<stop offset="1" stop-color="#A88038"/>
</linearGradient>
<linearGradient id="paint1_linear_2_125" x1="6.78732" y1="1.32892" x2="24.857" y2="8.42978" gradientUnits="userSpaceOnUse">
<stop stop-color="#1A381C"/>
<stop offset="1" stop-color="#3EDF49"/>
</linearGradient>
</defs>
</svg>
