<svg width="7" height="8" viewBox="0 0 7 8" fill="none" xmlns="http://www.w3.org/2000/svg">
<path id="Vector" d="M0.371541 2.85022L0.265187 2.28899C0.220154 2.05134 0.3745 1.82811 0.609418 1.79111L5.48724 0.994504C5.72318 0.956036 5.95034 1.11707 5.99388 1.35365L6.9252 6.26825C6.97023 6.50589 6.81589 6.72913 6.58097 6.76613L6.02376 6.85698C5.78532 6.89586 5.5557 6.72871 5.51521 6.48772L5.02311 3.50176L2.10476 7.72269C1.96971 7.91802 1.70114 7.96181 1.50237 7.82091L1.02413 7.48189C0.825363 7.34098 0.774103 7.07048 0.909155 6.87515L3.82751 2.65422L0.888218 3.20773C0.649717 3.25313 0.416038 3.09186 0.371541 2.85022Z" fill="#F4F9FE"/>
</svg>
