<svg width="31" height="20" viewBox="0 0 31 20" fill="none" xmlns="http://www.w3.org/2000/svg">
<path id="Vector" d="M21.0317 1.10681H17.1148C16.75 1.10681 16.3989 1.25242 16.1299 1.51451L11.6476 5.88274C11.643 5.8876 11.6385 5.89731 11.6339 5.90216C10.877 6.65932 10.8907 7.86786 11.5382 8.62017C12.1173 9.29482 13.3347 9.4744 14.0962 8.75122C14.1008 8.74636 14.1099 8.74636 14.1145 8.74151L17.7577 5.18868C18.0541 4.90232 18.5192 4.92173 18.7883 5.23722C19.0619 5.5527 19.0391 6.04291 18.7427 6.33413L17.5526 7.49414L24.1916 13.2311C24.3239 13.3476 24.4424 13.4738 24.5519 13.6048V4.21311L22.0622 1.56305C21.7932 1.27183 21.4193 1.10681 21.0317 1.10681ZM26.0156 4.22282V15.09C26.0156 15.9491 26.6676 16.6432 27.4747 16.6432H30.393V4.22282H26.0156ZM28.2043 15.09C27.803 15.09 27.4747 14.7405 27.4747 14.3134C27.4747 13.8863 27.803 13.5369 28.2043 13.5369C28.6055 13.5369 28.9338 13.8863 28.9338 14.3134C28.9338 14.7405 28.6055 15.09 28.2043 15.09ZM1.21021 16.6383H4.12848C4.93557 16.6383 5.58762 15.9442 5.58762 15.0852V4.22282H1.21021V16.6383ZM3.39891 13.5369C3.80018 13.5369 4.12848 13.8863 4.12848 14.3134C4.12848 14.7405 3.80018 15.09 3.39891 15.09C2.99765 15.09 2.66934 14.7405 2.66934 14.3134C2.66934 13.8815 2.99765 13.5369 3.39891 13.5369ZM23.2751 14.4396L16.4673 8.55707L15.0994 9.89181C13.7451 11.2071 11.6704 11.0809 10.4621 9.67825C9.23547 8.2513 9.33122 6.04291 10.6627 4.74215L14.3926 1.10681H10.5715C10.1839 1.10681 9.81456 1.27183 9.54097 1.56305L7.04676 4.21311V15.0803H7.8812L12.0078 19.0554C13.2572 20.1377 15.0948 19.9339 16.1117 18.604L16.1208 18.5943L16.937 19.3466C17.662 19.9776 18.7335 19.8562 19.3218 19.0845L20.7535 17.211L20.9998 17.4246C21.6245 17.9633 22.5455 17.8663 23.0517 17.1965L23.4849 16.6286C23.9956 15.9588 23.8998 14.9832 23.2751 14.4396Z" fill="url(#paint0_linear_2_123)" stroke="white" stroke-width="0.5"/>
<defs>
<linearGradient id="paint0_linear_2_123" x1="3.91528" y1="-0.583619" x2="36.9153" y2="15.9164" gradientUnits="userSpaceOnUse">
<stop stop-color="#F3D8A2"/>
<stop offset="1" stop-color="#A88038"/>
</linearGradient>
</defs>
</svg>
