<svg width="28" height="27" viewBox="0 0 28 27" fill="none" xmlns="http://www.w3.org/2000/svg">
<g id="emojione:victory-hand">
<g clip-path="url(#clip0_2_108)">
<path id="Vector" d="M16.2008 13.5767C15.9918 14.4963 16.5769 15.4576 17.5383 15.6666C18.4997 15.8756 19.461 15.2904 19.67 14.3709L22.2197 3.41975C22.4287 2.50019 21.8435 1.53883 20.8822 1.32984C19.9208 1.12084 18.9594 1.70602 18.7505 2.62558L16.2008 13.5767Z" fill="url(#paint0_linear_2_108)" stroke="white" stroke-width="0.5"/>
<g id="Group">
<path id="Vector_2" d="M19.5032 14.6626C19.5032 14.6626 15.8667 11.0679 9.4298 12.8653C9.4298 12.8653 5.62616 13.534 5.83515 15.4567C5.83515 15.4567 5.70976 20.2217 7.33989 23.064C9.35464 26.513 16.6244 27.1016 20.2454 23.064C21.0565 22.1595 20.9797 21.3467 21.4157 19.9162C21.4157 18.4162 21.4157 14.9162 19.5032 14.6626Z" fill="url(#paint1_linear_2_108)" stroke="white" stroke-width="0.5"/>
<g id="Vector_3">
<path d="M13.0229 14.2031C13.1901 15.1644 14.1514 15.7496 15.1128 15.5824C16.0742 15.4152 16.7429 14.4956 16.5757 13.5343L14.4858 2.49954C14.3186 1.53818 13.3573 0.953008 12.3959 1.1202C11.4346 1.28739 10.7658 2.20696 10.9748 3.16832L13.0229 14.2031Z" fill="url(#paint2_linear_2_108)"/>
<path d="M13.0229 14.2031C13.1901 15.1644 14.1514 15.7496 15.1128 15.5824C16.0742 15.4152 16.7429 14.4956 16.5757 13.5343L14.4858 2.49954C14.3186 1.53818 13.3573 0.953008 12.3959 1.1202C11.4346 1.28739 10.7658 2.20696 10.9748 3.16832L13.0229 14.2031" stroke="white" stroke-width="0.5"/>
</g>
</g>
<g id="Group_2">
<g id="Vector_4">
<path d="M5.62738 13.6604C5.50199 12.699 6.21256 11.8213 7.21571 11.6959H7.25751C8.21887 11.6123 9.13843 12.2811 9.22203 13.2842L9.51462 16.0011C9.64001 16.9625 8.92944 17.8402 7.92628 17.9656H7.88449C6.88133 18.0492 6.00357 17.3804 5.91997 16.3773L5.62738 13.6604Z" fill="url(#paint3_linear_2_108)"/>
<path d="M5.62738 13.6604C5.50199 12.699 6.21256 11.8213 7.21571 11.6959H7.25751C8.21887 11.6123 9.13843 12.2811 9.22203 13.2842L9.51462 16.0011C9.64001 16.9625 8.92944 17.8402 7.92628 17.9656H7.88449C6.88133 18.0492 6.00357 17.3804 5.91997 16.3773L5.62738 13.6604" stroke="white" stroke-width="0.5"/>
</g>
<g id="Vector_5">
<path d="M9.00946 11.6959C8.88407 10.7345 9.59464 9.85674 10.5978 9.73134H10.6396C11.6427 9.64775 12.5205 10.3165 12.6041 11.3197L12.8967 14.0366C13.0221 14.9979 12.3115 15.8757 11.3084 16.0011H11.2666C10.2634 16.0847 9.38565 15.4159 9.30205 14.4127L9.00946 11.6959Z" fill="url(#paint4_linear_2_108)"/>
<path d="M9.00946 11.6959C8.88407 10.7345 9.59464 9.85674 10.5978 9.73134H10.6396C11.6427 9.64775 12.5205 10.3165 12.6041 11.3197L12.8967 14.0366C13.0221 14.9979 12.3115 15.8757 11.3084 16.0011H11.2666C10.2634 16.0847 9.38565 15.4159 9.30205 14.4127L9.00946 11.6959" stroke="white" stroke-width="0.5"/>
</g>
</g>
<g id="Group_3">
<path id="Vector_6" d="M7.3306 17.381C8.33376 17.2556 9.00253 16.4197 8.91894 15.4165L8.62635 12.6996C8.58455 12.4488 8.45916 12.1562 8.33376 11.9055C8.96073 12.198 9.16973 12.6996 9.25332 13.2848L9.54591 16.0017C9.67131 16.963 8.96073 17.8408 7.99937 17.9244C7.2888 18.008 6.62003 17.6318 6.28564 17.0884C6.53643 17.2974 6.91262 17.4228 7.3306 17.381Z" fill="white"/>
<path id="Vector_7" d="M10.6689 15.4163C11.6721 15.2909 12.3827 14.455 12.2573 13.4936L11.9647 10.7767C11.9229 10.5259 11.7975 10.1915 11.6721 9.98254C12.2573 10.3169 12.508 10.8185 12.5916 11.4037L12.8842 14.1206C13.0096 15.0819 12.2991 15.9179 11.2959 16.0433H11.2541C10.5435 16.1269 9.87476 15.7507 9.54037 15.2073C9.87476 15.3745 10.2509 15.4581 10.6689 15.4163Z" fill="white"/>
<path id="Vector_8" d="M17.9079 17.297C15.9015 16.3357 11.3455 18.0076 12.2651 22.1874C12.2651 17.8404 16.1941 17.088 17.9079 17.297Z" fill="white"/>
<path id="Vector_9" d="M17.1503 12.9918C15.6874 12.114 15.4366 13.4933 12.9705 13.5769C11.8838 13.6187 11.424 15.834 13.0541 16.6282C15.3112 17.7568 15.4784 16.1684 16.0636 16.7954C16.6488 17.4642 17.1921 17.5896 17.6937 18.3419C18.0699 18.8853 20.8704 18.0493 21.163 16.9208C21.7063 14.7055 19.4074 14.3711 17.1503 12.9918Z" fill="white"/>
</g>
<g id="Vector_10">
<path d="M17.3283 13.3677C15.8236 12.49 15.531 13.8693 12.9813 13.9529C11.8527 13.9947 11.3511 16.2936 13.0649 17.1296C15.4056 18.2999 15.6146 16.628 16.1579 17.2968C16.7849 17.9655 17.3283 18.1327 17.8717 18.9269C18.2479 19.5121 17.2447 21.6856 17.2447 21.6856C17.2447 21.6856 20.1288 23.7337 20.714 22.5633C21.8007 20.3898 21.5081 18.7179 21.4663 17.464C21.3827 14.4963 19.7108 14.7889 17.3283 13.3677Z" fill="url(#paint5_linear_2_108)"/>
<path d="M17.3283 13.3677C15.8236 12.49 15.531 13.8693 12.9813 13.9529C11.8527 13.9947 11.3511 16.2936 13.0649 17.1296C15.4056 18.2999 15.6146 16.628 16.1579 17.2968C16.7849 17.9655 17.3283 18.1327 17.8717 18.9269C18.2479 19.5121 17.2447 21.6856 17.2447 21.6856C17.2447 21.6856 20.1288 23.7337 20.714 22.5633C21.8007 20.3898 21.5081 18.7179 21.4663 17.464C21.3827 14.4963 19.7108 14.7889 17.3283 13.3677" stroke="white" stroke-width="0.5"/>
</g>
</g>
</g>
<defs>
<linearGradient id="paint0_linear_2_108" x1="16.7243" y1="-0.0200685" x2="25.1967" y2="1.12536" gradientUnits="userSpaceOnUse">
<stop stop-color="#F3D8A2"/>
<stop offset="1" stop-color="#A88038"/>
</linearGradient>
<linearGradient id="paint1_linear_2_108" x1="7.31414" y1="11.1114" x2="27.2423" y2="18.5165" gradientUnits="userSpaceOnUse">
<stop stop-color="#1A381C"/>
<stop offset="1" stop-color="#3EDF49"/>
</linearGradient>
<linearGradient id="paint2_linear_2_108" x1="11.4615" y1="-0.224586" x2="19.3465" y2="0.758199" gradientUnits="userSpaceOnUse">
<stop stop-color="#F3D8A2"/>
<stop offset="1" stop-color="#A88038"/>
</linearGradient>
<linearGradient id="paint3_linear_2_108" x1="5.97602" y1="11.1191" x2="11.3002" y2="12.179" gradientUnits="userSpaceOnUse">
<stop stop-color="#F3D8A2"/>
<stop offset="1" stop-color="#A88038"/>
</linearGradient>
<linearGradient id="paint4_linear_2_108" x1="9.3581" y1="9.15457" x2="14.6823" y2="10.2145" gradientUnits="userSpaceOnUse">
<stop stop-color="#1A381C"/>
<stop offset="1" stop-color="#3EDF49"/>
</linearGradient>
<linearGradient id="paint5_linear_2_108" x1="12.8397" y1="12.1838" x2="25.1903" y2="16.0225" gradientUnits="userSpaceOnUse">
<stop stop-color="#1A381C"/>
<stop offset="1" stop-color="#3EDF49"/>
</linearGradient>
<clipPath id="clip0_2_108">
<rect x="0.608398" y="0.242676" width="26.7509" height="26.7509" fill="white"/>
</clipPath>
</defs>
</svg>
