<svg width="18" height="19" viewBox="0 0 18 19" fill="none" xmlns="http://www.w3.org/2000/svg">
<g id="Group 12">
<path id="Vector" d="M16.095 9.49987C15.7345 7.89188 13.9963 7.04514 12.2021 7.44946C11.8267 7.53381 11.4648 7.30577 11.4245 6.95954C11.2351 5.30557 9.75425 4.12425 7.95156 4.36944C5.88443 4.65206 4.33386 6.51976 4.54595 8.37135L5.2799 14.7417C5.32742 15.1531 5.72808 15.4055 6.17399 15.305L13.0782 13.7467C15.0866 13.294 16.5069 11.3442 16.095 9.49987Z" fill="url(#paint0_linear_2_78)"/>
<path id="Vector_2" d="M14.6753 1.77957C14.3777 1.23279 13.6528 1.04816 13.036 1.31137C12.9029 1.36809 12.7523 1.31333 12.7003 1.18933C12.4607 0.614812 11.7959 0.294234 11.1596 0.501527C10.4302 0.739747 10.0533 1.50621 10.3216 2.14937L11.246 4.36185C11.3057 4.50472 11.4787 4.5676 11.632 4.50217L14.0051 3.48844C14.6955 3.19375 15.0161 2.40685 14.6753 1.77957Z" fill="url(#paint1_linear_2_78)"/>
</g>
<defs>
<linearGradient id="paint0_linear_2_78" x1="8.20735" y1="-1.42181" x2="19.1299" y2="10.8103" gradientUnits="userSpaceOnUse">
<stop stop-color="#A88038"/>
<stop offset="1" stop-color="#F3D8A2"/>
<stop offset="1" stop-color="#C7A265"/>
</linearGradient>
<linearGradient id="paint1_linear_2_78" x1="10.6579" y1="-1.5714" x2="15.8471" y2="2.14917" gradientUnits="userSpaceOnUse">
<stop stop-color="#A88038"/>
<stop offset="1" stop-color="#F3D8A2"/>
<stop offset="1" stop-color="#C7A265"/>
</linearGradient>
</defs>
</svg>
