<svg width="24" height="20" viewBox="0 0 24 20" fill="none" xmlns="http://www.w3.org/2000/svg">
<g id="carbon:send-alt" clip-path="url(#clip0_9_49)">
<path id="Vector" fill-rule="evenodd" clip-rule="evenodd" d="M-0.91875 2.71703C-0.75492 1.98077 -0.352185 1.32339 0.223498 0.852547C0.79918 0.381706 1.51369 0.125315 2.25 0.125366H21.75C22.4863 0.125315 23.2008 0.381706 23.7765 0.852547C24.3522 1.32339 24.7549 1.98077 24.9187 2.71703L12 10.8154L-0.91875 2.71703ZM-1 4.62037V16.4604L8.42988 10.5304L-1 4.62037ZM9.98663 11.5087L-0.689625 18.2204C-0.425844 18.7908 -0.00951922 19.2727 0.510895 19.61C1.03131 19.9472 1.63441 20.126 2.25 20.1254H21.75C22.3655 20.1255 22.9684 19.9464 23.4885 19.6088C24.0086 19.2713 24.4246 18.7892 24.688 18.2187L14.0118 11.507L12 12.7687L9.98663 11.507V11.5087ZM15.5701 10.532L25 16.4604V4.62037L15.5701 10.5304V10.532Z" fill="white"/>
</g>
<defs>
<clipPath id="clip0_9_49">
<rect width="24" height="20" fill="white"/>
</clipPath>
</defs>
</svg>
