<svg width="19" height="24" viewBox="0 0 19 24" fill="none" xmlns="http://www.w3.org/2000/svg">
<path id="Vector" d="M14.1161 12.9767C14.0297 12.8652 13.9271 12.7767 13.8141 12.7163C13.7011 12.656 13.5799 12.6249 13.4576 12.6249C13.3353 12.6249 13.2141 12.656 13.1011 12.7163C12.9881 12.7767 12.8855 12.8652 12.7991 12.9767L11.3143 14.8895C10.626 14.6255 9.34153 14.0255 8.52745 12.9767C7.71336 11.9279 7.24764 10.2731 7.04272 9.38635L8.52745 7.47357C8.61402 7.36223 8.6827 7.22998 8.72956 7.08441C8.77643 6.93883 8.80055 6.78278 8.80055 6.62518C8.80055 6.46758 8.77643 6.31153 8.72956 6.16595C8.6827 6.02038 8.61402 5.88813 8.52745 5.77679L4.80166 0.976838C4.71523 0.865304 4.61258 0.776819 4.49958 0.716447C4.38658 0.656075 4.26545 0.625 4.14312 0.625C4.02079 0.625 3.89966 0.656075 3.78667 0.716447C3.67367 0.776819 3.57102 0.865304 3.48459 0.976838L0.958506 4.23121C0.604556 4.6872 0.405226 5.31359 0.412677 5.95319C0.434101 7.66197 0.785256 13.5971 4.41604 18.2747C8.04682 22.9522 12.6538 23.4034 13.9811 23.4322H14.0072C14.499 23.4322 14.9637 23.1826 15.3158 22.729L17.8419 19.4747C17.9285 19.3633 17.9972 19.2311 18.044 19.0855C18.0909 18.9399 18.115 18.7839 18.115 18.6263C18.115 18.4687 18.0909 18.3126 18.044 18.167C17.9972 18.0215 17.9285 17.8892 17.8419 17.7779L14.1161 12.9767ZM13.9978 21.031C12.8354 21.0058 8.85811 20.6038 5.7331 16.5767C2.59785 12.5375 2.2942 7.39557 2.27557 5.92799L4.14312 3.52201L6.55185 6.62518L5.34749 8.17677C5.238 8.3177 5.15751 8.49157 5.11328 8.68264C5.06904 8.87372 5.06246 9.07598 5.09413 9.27115C5.11649 9.40915 5.66325 12.6815 7.20945 14.6735C8.75565 16.6655 11.2957 17.3699 11.4028 17.3987C11.5542 17.4406 11.7114 17.4328 11.8598 17.376C12.0083 17.3192 12.1433 17.2151 12.2523 17.0735L13.4576 15.5219L15.8663 18.6251L13.9978 21.031Z" fill="white"/>
</svg>
