<svg width="21" height="21" viewBox="0 0 21 21" fill="none" xmlns="http://www.w3.org/2000/svg">
<g id="bx:bx-map">
<path id="Vector" d="M16.3378 12.0787L13.3378 10.5787C13.2197 10.5199 13.0881 10.4933 12.9565 10.5015C12.8248 10.5097 12.6976 10.5525 12.5878 10.6256L11.2106 11.5444C10.5784 11.1968 10.0581 10.6766 9.71057 10.0444L10.6293 8.66719C10.7024 8.55734 10.7452 8.43016 10.7535 8.29848C10.7617 8.1668 10.735 8.03528 10.6762 7.91719L9.17619 4.91719C9.11402 4.79163 9.01792 4.686 8.89878 4.61226C8.77964 4.53853 8.64224 4.49964 8.50213 4.5C7.50757 4.5 6.55374 4.89509 5.85048 5.59835C5.14722 6.30161 4.75213 7.25544 4.75213 8.25C4.75461 10.4373 5.6246 12.5343 7.17124 14.0809C8.71787 15.6275 10.8149 16.4975 13.0021 16.5C13.4946 16.5 13.9822 16.403 14.4372 16.2145C14.8922 16.0261 15.3056 15.7499 15.6538 15.4017C16.002 15.0534 16.2782 14.64 16.4667 14.1851C16.6551 13.7301 16.7521 13.2425 16.7521 12.75C16.7522 12.6107 16.7135 12.4741 16.6403 12.3555C16.5671 12.2369 16.4624 12.1411 16.3378 12.0787ZM13.0021 15C11.2125 14.998 9.49679 14.2862 8.23135 13.0208C6.96591 11.7553 6.25411 10.0396 6.25213 8.25C6.25198 7.7298 6.43209 7.22562 6.76181 6.82326C7.09153 6.4209 7.55048 6.14521 8.06057 6.04313L9.13682 8.19938L8.22088 9.5625C8.15243 9.66517 8.11038 9.78314 8.09844 9.90596C8.0865 10.0288 8.10505 10.1526 8.15244 10.2666C8.68905 11.5419 9.70364 12.5565 10.979 13.0931C11.0933 13.1426 11.2181 13.1629 11.3421 13.1521C11.4662 13.1413 11.5856 13.0998 11.6896 13.0312L13.0593 12.1181L15.2156 13.1944C15.1127 13.705 14.8358 14.1642 14.4321 14.4935C14.0285 14.8228 13.5231 15.0018 13.0021 15ZM10.7521 0.75C9.06882 0.749633 7.41408 1.18508 5.94899 2.01396C4.4839 2.84285 3.25836 4.03692 2.39166 5.47997C1.52497 6.92301 1.04664 8.56587 1.00324 10.2486C0.959842 11.9314 1.35285 13.5967 2.144 15.0825L1.07994 18.2747C0.991801 18.539 0.97901 18.8226 1.043 19.0938C1.10699 19.3649 1.24524 19.6129 1.44224 19.8099C1.63924 20.0069 1.88722 20.1451 2.15837 20.2091C2.42953 20.2731 2.71315 20.2603 2.97744 20.1722L6.16963 19.1081C7.47722 19.8036 8.92608 20.1921 10.4062 20.244C11.8864 20.2959 13.3589 20.01 14.712 19.4079C16.0651 18.8057 17.2633 17.9033 18.2156 16.769C19.1678 15.6346 19.8492 14.2983 20.2079 12.8613C20.5666 11.4244 20.5932 9.92456 20.2857 8.47578C19.9782 7.02701 19.3447 5.66732 18.4333 4.49992C17.5219 3.33253 16.3565 2.38811 15.0255 1.73836C13.6946 1.08861 12.2332 0.750608 10.7521 0.75ZM10.7521 18.75C9.3018 18.751 7.87691 18.3691 6.6215 17.6428C6.52959 17.5895 6.42739 17.5563 6.32169 17.5455C6.21599 17.5347 6.10919 17.5464 6.00838 17.58L2.50213 18.75L3.67119 15.2438C3.70489 15.143 3.7168 15.0362 3.70613 14.9305C3.69547 14.8248 3.66247 14.7226 3.60932 14.6306C2.69991 13.0584 2.33479 11.2299 2.57059 9.42896C2.80639 7.62801 3.62993 5.9552 4.91346 4.67006C6.19699 3.38491 7.86875 2.55925 9.6694 2.32118C11.4701 2.0831 13.299 2.44591 14.8724 3.35333C16.4458 4.26074 17.6758 5.66204 18.3715 7.33983C19.0673 9.01762 19.1899 10.8781 18.7203 12.6327C18.2508 14.3873 17.2154 15.9379 15.7746 17.0439C14.3339 18.15 12.5685 18.7497 10.7521 18.75Z" fill="white"/>
</g>
</svg>
